<svg xmlns="http://www.w3.org/2000/svg" viewBox="0 0 900 675" role="img" aria-labelledby="title desc"><title id="title">University contact support desk illustration</title><desc id="desc">Abstract university support desk with chat cards, calendar symbols, and event bubbles.</desc><defs><linearGradient id="bg" x1="0" y1="0" x2="1" y2="1"><stop offset="0" stop-color="#2448d8"/><stop offset="1" stop-color="#12b3a8"/></linearGradient><linearGradient id="card" x1="0" y1="0" x2="1" y2="1"><stop offset="0" stop-color="#ffffff"/><stop offset="1" stop-color="#f5f7ff"/></linearGradient></defs><rect width="900" height="675" fill="#f5f7ff"/><circle cx="160" cy="110" r="130" fill="#ffb703" opacity=".18"/><circle cx="760" cy="580" r="185" fill="#12b3a8" opacity=".17"/><path d="M0 522c118-61 222-72 312-33s171 122 285 115 193-104 303-117v188H0z" fill="url(#bg)" opacity=".14"/><rect x="150" y="122" width="600" height="392" rx="42" fill="url(#card)" stroke="#dfe5f3" stroke-width="4"/><rect x="198" y="176" width="300" height="46" rx="23" fill="#2448d8" opacity=".12"/><rect x="198" y="248" width="204" height="24" rx="12" fill="#172f93" opacity=".18"/><rect x="198" y="292" width="314" height="22" rx="11" fill="#687389" opacity=".18"/><rect x="198" y="330" width="260" height="22" rx="11" fill="#687389" opacity=".14"/><rect x="198" y="394" width="170" height="58" rx="29" fill="url(#bg)"/><circle cx="614" cy="264" r="74" fill="#ffb703" opacity=".95"/><path d="M580 258h68M580 284h46" stroke="#fff" stroke-width="17" stroke-linecap="round"/><rect x="524" y="372" width="152" height="108" rx="26" fill="#12b3a8" opacity=".16" stroke="#12b3a8" stroke-width="3"/><path d="M562 421h76M562 449h44" stroke="#12b3a8" stroke-width="14" stroke-linecap="round"/><circle cx="152" cy="512" r="54" fill="#2448d8" opacity=".95"/><path d="M132 512l15 16 29-34" fill="none" stroke="#fff" stroke-width="12" stroke-linecap="round" stroke-linejoin="round"/><circle cx="752" cy="158" r="48" fill="#12b3a8" opacity=".95"/><path d="M733 158h38M752 139v38" stroke="#fff" stroke-width="11" stroke-linecap="round"/></svg>
