<svg xmlns="http://www.w3.org/2000/svg" width="900" height="620" viewBox="0 0 900 620"><rect width="900" height="620" rx="38" fill="#fff"/><rect x="92" y="90" width="188" height="370" rx="26" fill="#f5f7ff" stroke="#dfe5f3"/><rect x="356" y="90" width="188" height="370" rx="26" fill="#f5f7ff" stroke="#dfe5f3"/><rect x="620" y="90" width="188" height="370" rx="26" fill="#f5f7ff" stroke="#dfe5f3"/><path d="M132 156h108M132 205h78M132 254h112M396 156h108M396 205h92M396 254h112M660 156h108M660 205h76M660 254h115" stroke="#2448d8" stroke-width="14" stroke-linecap="round"/><rect x="129" y="315" width="112" height="82" rx="18" fill="#12b3a8"/><rect x="393" y="315" width="112" height="82" rx="18" fill="#ffb703"/><rect x="657" y="315" width="112" height="82" rx="18" fill="#172f93"/><text x="450" y="545" text-anchor="middle" font-family="Cairo,Arial,sans-serif" font-size="32" font-weight="800" fill="#172033">Digital Poster Session</text></svg>
