<svg xmlns="http://www.w3.org/2000/svg" width="900" height="560" viewBox="0 0 900 560" role="img" aria-labelledby="title desc"><title id="title">Innovation Auditorium map</title><desc id="desc">Stylized campus map with route to Innovation Auditorium.</desc><rect width="900" height="560" rx="42" fill="#f5f7ff"/><path d="M77 427 C197 346 264 374 356 287 C445 203 527 217 630 132 C701 74 765 73 831 97" fill="none" stroke="#dfe5f3" stroke-width="42" stroke-linecap="round"/><path d="M77 427 C197 346 264 374 356 287 C445 203 527 217 630 132 C701 74 765 73 831 97" fill="none" stroke="#2448d8" stroke-width="13" stroke-linecap="round" stroke-dasharray="24 24"/><rect x="90" y="82" width="170" height="110" rx="22" fill="#ffffff" stroke="#dfe5f3"/><rect x="595" y="310" width="210" height="135" rx="26" fill="#ffffff" stroke="#dfe5f3"/><rect x="337" y="92" width="185" height="122" rx="26" fill="#ffffff" stroke="#dfe5f3"/><rect x="333" y="338" width="156" height="96" rx="22" fill="#ffffff" stroke="#dfe5f3"/><circle cx="640" cy="132" r="34" fill="#12b3a8"/><circle cx="640" cy="132" r="18" fill="#ffffff"/><path d="M640 89c48 0 87 39 87 87 0 63-87 151-87 151s-87-88-87-151c0-48 39-87 87-87z" fill="#2448d8" opacity=".95" transform="translate(76 26) scale(.72)"/><circle cx="537" cy="153" r="12" fill="#ffb703"/><text x="625" y="413" font-family="Cairo, Arial, sans-serif" font-size="30" font-weight="800" fill="#172033">Innovation Auditorium</text><text x="625" y="451" font-family="Cairo, Arial, sans-serif" font-size="19" font-weight="700" fill="#687389">Main Virtual Campus</text><text x="119" y="148" font-family="Cairo, Arial, sans-serif" font-size="23" font-weight="800" fill="#172033">Library</text><text x="371" y="161" font-family="Cairo, Arial, sans-serif" font-size="23" font-weight="800" fill="#172033">Design Lab</text><text x="365" y="397" font-family="Cairo, Arial, sans-serif" font-size="22" font-weight="800" fill="#172033">Cafe</text></svg>
